# xmcd
#
# Track frame offsets:
#	150
#	22477
#	43490
#	68825
#	85894
#	105691
#	136494
#	157307
#	186627
#	215299
#	244144
#
# Disc length: 3305 seconds
#
# Revision: 3
# Processed by: cddbd v1.5.2PL0 Copyright (c) Steve Scherf et al.
# Submitted via: audiograbber 1.83.01
#
DISCID=b00ce70b
DTITLE=Brad Paisley - Hits Alive [Disc 2] Live Hits
DYEAR=2010
DGENRE=Country
TTITLE0=Water (Live)
TTITLE1=American Saturday Night (Live)
TTITLE2=Waitin' On A Woman (Live)
TTITLE3=I'm Gonna Miss Her (Live)
TTITLE4=Mud On The Tires (Live)
TTITLE5=She's Everything (Live)
TTITLE6=Time Warp (Live)
TTITLE7=Letter To Me (Live)
TTITLE8=Then (Live)
TTITLE9=Alcohol (with Darius Rucker) (Live)
TTITLE10=Online (Reprise) (Live)
EXTD=
EXTT0=
EXTT1=
EXTT2=
EXTT3=
EXTT4=
EXTT5=
EXTT6=
EXTT7=
EXTT8=
EXTT9=
EXTT10=
PLAYORDER=
